<?xml version="1.0" encoding="UTF-8"?>
<svg xmlns="http://www.w3.org/2000/svg" viewBox="0 0 459 504" stroke="currentColor">
  <defs>
    <style>
      .real-line {
      stroke: currentColor;
      stroke-width: 2px;
      stroke-linecap: round;
      fill: none;
      stroke-linejoin: round;
      }
    </style>
  </defs>

  <path class="real-line"
    d="m151.75,159.31c4.33,8.89,6.15,14.13,7.97,20.28s4.78,33.72,12.53,40.33c7.75,6.61,27.8,22.78,31.67,25.97s7.52,10.94,23.01,2.28,27.11-14.13,38.96-22.1" />
  <path class="real-line" d="m211.6,35.28c-10.63,19.75-21.04,52.56-2.77,73.22" />
  <path class="real-line" d="m216.16,40.45c-14.59,55.79-1.52,83.24,30.08,103.9" />
  <path class="real-line" d="m211.6,115.49c8.81,16.71,35.54,38.28,49.82,34.63" />
  <path class="real-line" d="m198.85,71.89c-11.86,24.76-23.1,53.92-27.05,80.35" />
  <path class="real-line" d="m170.28,115.49c-6.08,16.71-3.04,38.28-3.04,38.28" />
  <path class="real-line" d="m196.14,77.67c-11.27,51.8-4.59,79.44,5.74,85.21" />
  <path class="real-line" d="m229.5,170.02c-12.03-1.37-20.78,0-33.42-25.67" />
  <path class="real-line" d="m198.49,149.02s.41,8.62,1.78,12.76" />
  <path class="real-line" d="m222.21,129.65c-.05,19.41,1.82,36.45,6.01,40.23" />
  <path class="real-line" d="m239.14,143.62c2.15,8.63,2.78,12.3,6.11,20.49" />
  <path class="real-line" d="m245.26,123.08c5.38,22.1,13.59,35.24,17.69,38.7" />
  <path class="real-line" d="m247.01,129.65c1.27,18.72,4.63,31.71,7.09,35.81" />
  <path class="real-line" d="m239.75,146.08c5.19,9.13,7.72,13.83,12.72,15.7" />
  <path class="real-line" d="m216.01,143.62c-.23,11.59,3.66,20.98,8.21,25.86" />
  <path class="real-line"
    d="m222.21,105.54c-.28,12.3,1.28,19.17,3,27.47,4.49,21.6,11.98,26.99,22.46,32.45" />
  <path class="real-line" d="m257.47,77.67c8.89,27.64,15.95,55.42,18,72.86" />
  <path class="real-line" d="m170.28,115.49c-11.47,14.66-14.73,44.05-13.78,54.53" />
  <path class="real-line" d="m148.56,123.08c-3.42,25.06-4.1,39.24,2.05,46.39" />
  <path class="real-line"
    d="m173.32,51.08c-19.44,15.19-26.13,42.49-35.85,63.01s-33.11,80.07-58.94,125.95-40.1,120-5.47,156.15" />
  <path class="real-line" d="m236.51,16.45c-30.38,0-64.1,15.27-83.24,39.19" />
  <path class="real-line" d="m133.89,121.99C111.83,172.54,52.06,198.12,1.5,204.2" />
  <path class="real-line" d="m145.98,142.43c-9.72,28.35-22.79,49.31-22.79,49.31" />
  <path class="real-line" d="m143.05,150.53c-4.66,34.23-4.09,60.05,7.57,81.01" />
  <path class="real-line" d="m148.3,167.08c-2.62,12.81-7.28,40.9-3.71,50.25" />
  <path class="real-line"
    d="m141.07,168.29c-24.86,38.03-35.79,53.52-50.38,74.49s-30.99,45.87-33.11,64.71" />
  <path class="real-line"
    d="m151.75,235.18c-33.72,26.73-79.32,51.95-99.21,59.85S1.5,333.31,1.5,333.31" />
  <path class="real-line" d="m72.31,270.94c-14.73,36.55-8.05,78.77,2.58,96.7" />
  <path class="real-line" d="m61.83,344.25c6.68,20.35,16.71,31.29,26.13,32.2" />
  <path class="real-line" d="m64.75,352.06c3.76,24.99,15.91,42.92,21.99,44.13" />
  <path class="real-line" d="m69.34,388.9c7.07,7.9,11.02,9.72,17.4,7.29" />
  <path class="real-line" d="m15.35,319.29c-4.56,8.25-13.85,23.74-13.85,23.74" />
  <path class="real-line" d="m99.32,199.64c-19.87,16.1-77.77,56.51-90.9,87.19" />
  <path class="real-line" d="m94.34,196.6c-35.54,16.41-64.15,19.44-92.84,22.78" />
  <path class="real-line" d="m87.96,199.64c-26.43,20.05-69.32,62.28-86.46,89.32" />
  <path class="real-line" d="m146.64,80.18c-2.66,6.59-3.56,13.77-4.75,23.83" />
  <path class="real-line" d="m141.89,95.44c-6.54,10.33-5.66,16.56-5.8,21.65" />
  <path class="real-line" d="m151.75,152.25c-1.52,9.11-1.14,17.23-1.14,17.23" />
  <path class="real-line" d="m150.72,161.78c-.11,7.7,7.31,27.05,11.69,31.31" />
  <path class="real-line" d="m158.4,186.86c-12.12,17.34-28.75,46.5-43.33,59.03" />
  <path class="real-line" d="m160.78,191.03c-7.2,8.15-17.57,23.92-27.99,34.15" />
  <path class="real-line" d="m254.1,32.85c14.08,10.94,22.74,25.75,28.89,58.56" />
  <path class="real-line" d="m248.82,29.21c13.9.68,29.39,18.31,32.58,48.46s3.42,49.74,0,67.52" />
  <path class="real-line"
    d="m254.1,26.47c10.89-2.28,54.19,5.77,55.55,85.59s-40.56,125.62-53.54,157.06-35.09,68.13-36.68,113.92" />
  <path class="real-line"
    d="m236.51,16.45c12.76-.46,39.19,2.05,57.19,14.13s38.73,30.76,45.11,58.33,1.59,65.39,4.1,89.54,18.23,86.58,70.41,127.14c15.54,12.08,30.64,20.02,44.18,25.21" />
  <path class="real-line" d="m396.35,290.43c22.21,16.07,42.89,25.87,61.15,29.51" />
  <path class="real-line" d="m305.77,77.67c14.59,16.02,20.51,22.18,15.04,46.78" />
  <path class="real-line" d="m324.92,79.97c-.23,9.61-1.57,14.94-4.2,17.63" />
  <path class="real-line" d="m310.79,60.42c3.42,9.57,5.66,24.15,4.65,28.37" />
  <path class="real-line" d="m310.79,67.94c1.14,5.7,2.13,13.69,1.29,16.76" />
  <path class="real-line" d="m327.88,74.61c4.1,16.8,5.24,29.18-2.96,42.47" />
  <path class="real-line" d="m328.62,109.58c-.29,32.19.85,93.48,33.66,137.91" />
  <path class="real-line" d="m309.52,107.34c8.34,15.52,17.69,31.01,2.08,51.97" />
  <path class="real-line" d="m308.28,140.37c3.87,13.92,3.87,26.02-1.37,37.06" />
  <path class="real-line" d="m327.98,124.45c-2.6,13.9-5.23,19.12-11.09,26.08" />
  <path class="real-line" d="m323.52,140.37c-.2,14.84-7.99,26.03-14,30" />
  <path class="real-line" d="m315.79,164.11c.01,7.28-5.66,15.71-6.81,16.62" />
  <path class="real-line"
    d="m302.14,171.78c3.03-1.3,6.7,7.2,6.84,9.94s-.04,4.55,0,6.23c.11,4.25-10.95,13.97-20.08,19.43" />
  <path class="real-line" d="m316.88,162.52c-.4,25.27,3.08,79.72,11.71,93.62" />
  <path class="real-line" d="m307.83,191.03c.23,22.51,8.2,51.67,17.09,65.11" />
  <path class="real-line" d="m304.81,194.81c.74,15.99,6.1,28.9,8.43,34.68" />
  <path class="real-line" d="m280.26,150.53c-1.82,19.72-8.43,60.34-20.51,66.8" />
  <path class="real-line" d="m278.21,185.28c-2.73,10.25-5.27,16.97-11.86,24.51" />
  <path class="real-line"
    d="m272.28,201.43c-7.97,24.18-19.13,43.55-33.26,80.24s-21.19,82.71-23.01,109.59,8.89,51.04,20.51,54.23" />
  <path class="real-line" d="m230.29,329.34c-2.2,31.39-4.25,98.6,32.88,113.41" />
  <path class="real-line" d="m229.5,431.36c6.56,10.03,15.25,18,35.05,11.39" />
  <path class="real-line" d="m221.93,402.88c2.73,20.51,8.43,41.24,19.82,42.61" />
  <path class="real-line" d="m153.27,153.93c6.46,13.81,10.04,18.49,10.04,18.49" />
  <path class="real-line" d="m159.96,155.4c-.46,3.91,2.45,14.62,2.45,14.62" />
  <path class="real-line" d="m159.93,157.18c7.31-3.42,13.24-5.85,16.88-4.94s17.77,14.84,17.77,14.84" />
  <path class="real-line" d="m153.96,155.4c8.95-5.43,15.79-7.33,21.49-6.38s19.14,16.45,19.14,16.45" />
  <path class="real-line"
    d="m174.28,152.25c-5.21,11.85,2.06,28.03,2.98,28.48s9.35-1.2,11.18-2.2,2.77-8.76,2.07-15.36" />
  <path class="real-line" d="m252.47,161.78c-7.08,6.87-5.91,16.9-5.47,20.54" />
  <path class="real-line" d="m267.5,163.17c1.82,8.67,1.06,20.06-6.08,24.62" />
  <path class="real-line" d="m246.11,183.93c5.89.9,13.64,5.58,13.64,5.58" />
  <path class="real-line" d="m151.75,133.01c13.67-5.37,30.76-6.86,42.84,4.48" />
  <path class="real-line" d="m236.51,135.5c14.35-2.85,37.31,1.43,47.36,4.87" />
  <path class="real-line" d="m175.55,177.43c2.49-3.16,4.41-3.75,6.03-3.84s6.39.95,7.95,3.32" />
  <path class="real-line" d="m176.51,159.57c-1.52,5.44-1.67,15.45,4.41,15.91s7.29-6.46,5.92-14.62" />
  <path class="real-line" d="m247.01,182.32c5.15-2.13,10.01-.78,12.74,4.4" />
  <path class="real-line" d="m252.93,181.36c-1.53-8.15.14-14.05,2.42-17.25" />
  <path class="real-line" d="m261.42,163.17c4.56,4.26,3.46,15.59-3.59,20.86" />
  <path class="real-line" d="m203.7,198.27c-.76,2.43-.76,7.45-.76,7.45" />
  <path class="real-line" d="m196.08,219.39c8.08,3.49,12.18,4.1,15.52,4.25s13.77-1.22,17.9-4.25" />
  <path class="real-line"
    d="m298.97,177.43c4.69-.58,5.93,1.89,5.84,3.92s.26,9.14-5.84,11.74-5,2.64-5,2.64" />
  <path class="real-line" d="m220.55,251.09c4.12,4.29,7.46,8.24,7.46,11.13v7.44" />
  <line class="real-line" x1="276.73" y1="230.99" x2="276.73" y2="245.89" />
  <path class="real-line" d="m276.73,243.08c1.86-.15,4.14,2.89,9.15,11.39" />
  <path class="real-line" d="m172.53,220.14c-3.76,6.99-20.77,37.52-20.77,37.52" />
  <path class="real-line"
    d="m203.93,245.89c-7.97.53-11.77,3.11-13.9,3.57s-9.27,0-13.37,0-6.84,4.86-10.63,5.01-10.33,3.8-13.37,3.95-4.78.11-6.87,1.95-3.61,3.82-3.61,3.82c0,0-5.66,15.04-8.3,18.53s-8.56,18.23-10.69,20.66-24.3,31.14-31.44,46.63c0,0,15.95,32.05,37.06,29.01" />
  <path class="real-line"
    d="m139.52,270.94c-2.96,14.52-4.78,34.27-11.47,46.57s-15.04,47.09-13.52,52.71" />
  <path class="real-line" d="m151.63,292.72c-5.5,9.76-6.26,29.2-2.76,48.34" />
  <path class="real-line" d="m149.95,273.77c-2.3,6.23-3.35,20.05-3.2,24" />
  <path class="real-line" d="m116.51,371.28c.15,2.89,6.68,6.18,11.09,7.95" />
  <path class="real-line"
    d="m116.51,371.28c8.2.15,23.7.15,27.34,0s10.94,4.05-1.82,7.95-4.65,5.72,9.6,9.06,13.79,1.67,13.79,1.67" />
  <path class="real-line" d="m168.01,254.47c-1.67,4.71-6.08,13.06-8.81,22.78s-13.02,54.3-9.25,96.87" />
  <path class="real-line" d="m166.73,257.66c-2.98,14.73-4.96,37.97,19.35,84.61" />
  <path class="real-line" d="m165,276.65c-5.66,16.1-9.99,40.56-15.8,84.31" />
  <path class="real-line" d="m155.21,257.85c-7.41,11.96-11.05,22.44,9.79,77.89" />
  <path class="real-line"
    d="m166.23,288.34c-.35,16.87-3.09,63.36-2.93,72.62s-1.82,30.68,13.52,46.93,19.44,29.92,21.42,34.86,3.65,4.63,5.7,4.18,3.87-3.04,6-3.19,2.18,2.9,5.87,3.43,13.65.52,16.04,1.59,15.15,8.2,23.35,5.77,19.44-6.84,21.72-9.04" />
  <path class="real-line" d="m186.08,342.27c5.92-3.65,36.71-17.2,39.92-16.88" />
  <path class="real-line" d="m221.54,252.14c-7.51,12.51-14.85,25.88,4.47,72.21" />
  <path class="real-line"
    d="m286.79,244.75c.61,14.13-4.1,24.15-9.11,29.01s-22.33,29.16-29.16,34.63-12.53,18.75-17.13,17.88" />
  <path class="real-line"
    d="m235.15,327.69c4.25-1.82,14.89,6.38,18.68,9.27s17.32,11.39,17.32,11.39c8.96-8.66,41.77-47.7,45.23-53.01s15.99-30.08,17.2-32.2,1.97-5.47-1.22-5.47-26.89-8.51-34.63-10.94-18.84-12.46-20.81-12.15" />
  <path class="real-line" d="m212.79,280.14c6.26.61,11.88,2.43,14.31,5.39s5.47,4.89,5.47,4.89" />
  <path class="real-line" d="m271.15,280.14c-5.01,2.73-9.72,2.58-13.37,2.73l-10.48,7.55" />
  <path class="real-line" d="m153.67,329.34c1.72,14.07,5.42,32.79,9.61,42.34" />
  <path class="real-line" d="m201.42,337.03c1.82,5.7,8.43,28.8,8.43,28.8" />
  <path class="real-line" d="m233.32,169.48c7.29-5.53,27.48-14.47,38.96-14.1" />
  <path class="real-line" d="m239.14,167.54c10.43-4.2,22.28-7.39,31.55-2.08s6.25,9.52,5.33,13.86" />
  <path class="real-line"
    d="m255.35,158.71c12.76-1.6,21.42,1.49,26.13,8.37,0,0,3.34,2.96-8.05,16.84" />
  <path class="real-line"
    d="m334.62,261.46c6.55.91,16.12,3.65,18.24,8.2s7.75,5.01,9.42,5.16,6.68-.46,9.87,12.15,11.24,40.78,14.43,44.85" />
  <path class="real-line"
    d="m376.44,302.73c6.65,8.25,27.01,34.69,30.35,39.55s8.35,11.39,3.95,15.04-34.48,24.66-48.91,28.74-.61-2.31,4.1-6.86,21.25-14.13-5.32-3.95-52.85,24.91-41.46,10.03,18.53-16.41,4.71-15.65-25.06,11.9-30.08,16.43-6.53,8.18-2.13,10" />
  <path class="real-line" d="m352.87,269.66c-5.62.15-7.9,2.28-11.24,6.53s-28.64,36.3-31.94,43.75" />
  <path class="real-line"
    d="m306.99,322.22c-5.01,6.38-9.42,13.97-11.85,17.16s-3.04,6.18-1.82,10,4.56,10.36,3.49,15.52" />
  <path class="real-line" d="m314.74,317.97c-3.95,10.94-15.95,43.59-18.68,49.82s-8.08,20.96-7,25.52" />
  <path class="real-line" d="m327.21,294.8c-4.72,14.05-4.11,28.48-3.2,33.49s6.79,25.54,7.27,41.71" />
  <path class="real-line" d="m328.42,293.21c-.61,10.02-1.8,46.37-1.8,46.37" />
  <path class="real-line"
    d="m346.03,276.65c7.9,5.32,10.63,21.72,12.15,31.59s7.75,44.96,12.61,51.8,3.77,9.31,3.8,10.68" />
  <path class="real-line" d="m383.8,312.06c8.26,5.15,27.86,17.59,30.44,18.74s4.51,4.48-4.43,15.95" />
  <path class="real-line" d="m374.68,276.65c13.58,13.82,29.82,29.8,49.27,36.62" />
  <path class="real-line" d="m375.61,277.6c9.46,13.93,39.63,52.92,81.89,71.78" />
  <path class="real-line"
    d="m379.7,377.73c-10.13,7.38-16.05,18.92-25.01,14.52-2.24-1.1-4.65-1.41-7.01-1.27" />
  <path class="real-line" d="m317.38,370.72c-1.58,7.7-1.38,15.44-.95,19.85" />
  <path class="real-line" d="m173.32,220.82c.76,16.49,8.65,24.02,12.15,28.84" />
  <path class="real-line" d="m170.28,226.68c-4.41,13.37-3.4,23.28-1.63,26.98" />
  <path class="real-line" d="m168.42,233.5c-.41,9.43,1.38,15.72,3.22,18.12" />
  <path class="real-line" d="m159.78,243.23c-1.65,6.68-1.78,11.22-1.49,13.51" />
  <path class="real-line"
    d="m109.49,264.59c-21.84,23.15-50.88,67.2-61.57,93.63s-30.75,74.73-15.25,104.2" />
  <path class="real-line" d="m104.66,326.32c-9.11,9.42-16.1,24.31-20.35,29.32" />
  <path class="real-line"
    d="m81.58,360.96c-14.89,18.83-34.03,61.21-34.94,84.53-.91,23.32.91,21.49,3.65,23.32" />
  <path class="real-line" d="m38.51,398.32c-7.52,25.06-15.98,61.58,9.44,68.84" />
  <path class="real-line" d="m30.88,439.56c-2.71,9.68.06,19.36.93,21.11" />
  <path class="real-line" d="m69.34,391.91c-5.76,21.68-13.96,68.16,1.53,78.41" />
  <path class="real-line" d="m101.4,365.83c-9.34,22.47-37.14,86.49-18.91,105.63" />
  <path class="real-line" d="m96.39,386.05c-4.78,10.23-16.8,40.71-17.86,46.7" />
  <path class="real-line" d="m69.34,456.88c4.26,9.8,7.68,13.9,12.24,13.44" />
  <path class="real-line" d="m100.64,367.64c-7.22,34.1-10.78,63.72,0,79.22s15.56,13.44,25.13,4.78" />
  <path class="real-line"
    d="m109.8,372.83c-8.18,23.89-13.19,38.48-11.82,51.35s3.02,28.99,14.95,30.84c2.43.38,5.15.6,7.95.72" />
  <path class="real-line" d="m143.22,378.85s-14.89,83.5-16.28,105.14c-.31,4.79-.99,11.42-1.87,18.83" />
  <path class="real-line"
    d="m143.22,404.47c-1.95,18.46-9.01,55.59-10.38,75.19-.41,5.83-1.44,14.02-2.74,23.16" />
  <path class="real-line"
    d="m146.75,377.34c-3.42,18.94-5.78,25.74,2.46,53.78s8.47,38.75,7.9,56.75c-.17,5.34.11,10.43.59,14.96" />
  <path class="real-line" d="m188.83,423.19c-.17,16.82,1.88,31.71,4.39,37.48s2.96,14.66,2.96,18.76" />
  <path class="real-line" d="m150.12,434.27c.49,13.04-3.15,26.18-7.71,28.16" />
  <path class="real-line" d="m153.67,447.86c-2.6,10.61-7.77,12.47-12.71,15.76" />
  <path class="real-line" d="m230.74,333.31c-.61,29.62,7.44,47.34,7.44,47.34" />
  <path class="real-line"
    d="m230.71,328.15c4.44-.46,5.35,4.55,7.48,7.59s20.35,32.6,21.72,34.98,2.73,6.89-.68,6.61" />
  <path class="real-line" d="m231.84,330.12c9.08,34.48,21.53,49.77,27.38,47.22" />
  <path class="real-line" d="m233.4,335.74c-.28,27.14,17.24,63.34,23.16,68.96s16.56,18.99,26.43,24" />
  <path class="real-line" d="m236.33,332.4c4.89,21.72,23.68,51.64,50.51,83.84" />
  <line class="real-line" x1="355.24" y1="377.35" x2="355.68" y2="386.71" />
  <path class="real-line" d="m397.99,366.36c9.56,11.3,27.18,20.89,57.56,20.35" />
  <path class="real-line" d="m396.35,375.54c18.34,12.61,32.87,11.7,61.15,13.22" />
  <path class="real-line" d="m373.49,383.06c5.51,4.78,30.42,22.71,32.55,27.42" />
  <path class="real-line"
    d="m430.49,428.55c2.13,10.48-2.58,16.25-2.58,16.25,8.35-10.18-31.59-39.65-49.97-54.23" />
  <path class="real-line"
    d="m431.04,429.77c4.61,4.25,2.68,8.28,2.68,8.28,2.84-1.59,4.72-4.25,3.45-12.08-1.97-12.15-25.82-36.3-39.18-49.34" />
  <path class="real-line" d="m389.76,399.86c14.45,27.17,14.15,35.52,1.08,47.22" />
  <path class="real-line" d="m379.7,391.97c9.01,18.8,19.61,43.87,10.05,54.35" />
  <path class="real-line" d="m350.76,404.7c15.02,9.87,44.43,34.86,39,41.62" />
  <path class="real-line" d="m351.3,405.06c6.43,11.15,11.21,28.51,8.25,32.99" />
  <path class="real-line"
    d="m352.56,378.44c-7.02,18.86-39.94,83.57-41.42,92.68-.99,6.11-2.4,20.26-4.17,31.71" />
  <path class="real-line"
    d="m294.97,384.96c-3.32,16.4-11.22,42.98-16.08,54.38s-9.72,25.52-11.7,39.34c-.7,4.91-1.52,14.02-2.31,24.15" />
  <path class="real-line" d="m311.55,456.8c0,6.84-2.28,14.43-3.95,16.56" />
  <path class="real-line" d="m263.17,411.58c3.57,8.01,15.72,27.76,15.72,27.76" />
  <path class="real-line" d="m238.18,380.65h7.35c-1.46-4.16-6.89-20.6-7.58-31.24" />
  <path class="real-line" d="m204.39,470.32c-6.23,4.71-17.19,17.57-28.8,32.51" />
  <path class="real-line" d="m202.79,476.63c-3.39,6.46-7.47,15.73-11.71,26.2" />
  <path class="real-line" d="m194.13,428.7c3.87-.08,14.92,15.08,14.92,15.08" />
  <path class="real-line" d="m214.18,398.78c-.3,9.27-.15,35.24,0,38.89s5.86,6.22,8.93,10.02" />
  <path class="real-line" d="m296.73,202l-.52,38.17s-6.38-18.88-5.84-33.7" />
  <path class="real-line" d="m340.79,405.06c5.7,6.17,17.24,25.16,18.3,34.28" />
  <path class="real-line" d="m342.71,407.34v9.51s-5.89,8.55-13.51,12.78" />
  <path class="real-line" d="m337.36,423.19c-1.35,4.6,1.23,9.15,1.23,9.15,0,0-.61,3.34-3.49,4.25" />
  <path class="real-line"
    d="m337.03,427.19h7.94s29.32,17.47,61.06,52.86c6.38,7.12,12.72,14.89,18.76,22.78" />
  <path class="real-line" d="m402.67,475.49c8.88,5.46,31.97,17.91,46.17,27.34" />
  <path class="real-line" d="m333.88,435.54c-4.25,9.72-13.37,21.98-19.14,25.65" />
  <path class="real-line" d="m335.96,436.6c-4.51,10.63-18.03,25.67-21.82,29.16" />
  <path class="real-line" d="m342.71,438.27c6.39,13.87,16.64,38.52,26.36,64.56" />
  <path class="real-line" d="m329.7,451.32c2.78,11.48,5.55,30.48,8.09,51.51" />
  <path class="real-line" d="m262.78,493.79c-1.23,2.77-2.55,5.79-3.92,9.03" />
  <path class="real-line" d="m209.63,443.78c-.8,3.76,1.48,5.81,2.51,6.84v3.76l-7.75,15.95" />
  <path class="real-line" d="m214.87,448.35c6.27,4.77,19.95,8.88,29.17,8.08" />
  <path class="real-line" d="m214.87,453.46c6.49,9.23,14.92,15.5,24.95,18.29" />
  <path class="real-line" d="m211.82,455.03c8.18,10.4,27.79,26.36,55.92,20.26" />
  <path class="real-line" d="m225.35,467.39c-.67,9.7.3,23.14,1.71,35.44" />
  <path class="real-line" d="m214.18,461.18c-1.82,9.78-3.73,25.33-5.39,41.64" />
  <path class="real-line" d="m153.27,55.64c-24,33.15-61.06,96.61-138.53,125.72" />
  <path class="real-line" d="m150.57,74.61c-18.18,25.36-45.3,69.01-109.59,94.87" />

</svg>